<svg id="Layer_1" height="35pt" viewBox="0 0 512 512" width="35pt" xmlns="http://www.w3.org/2000/svg"><path fill="#0ac77599" d="M338.132 400.517c-4.085-.685-7.949 2.083-8.628 6.169s2.083 7.949 6.169 8.628c56.232 9.345 81.844 26.126 81.844 37.763C417.517 471.417 356.07 497 256 497c-37.182 0-72.293-3.635-101.539-10.51a7.501 7.501 0 00-3.433 14.602C181.382 508.229 217.681 512 256 512c45.865 0 89.084-5.465 121.696-15.387 35.864-10.911 54.821-25.967 54.821-43.537 0-23.434-34.402-42.592-94.385-52.559zM123.004 476.74c-17.859-7.326-28.521-16.173-28.521-23.664 0-11.637 25.611-28.417 81.841-37.762a7.5 7.5 0 00-2.459-14.797c-26.943 4.478-49.724 11.131-65.879 19.241-18.914 9.495-28.503 20.705-28.503 33.317 0 18.203 20.571 30.462 37.827 37.541a7.465 7.465 0 002.844.563 7.499 7.499 0 002.85-14.439zm-21.903-317.632a7.502 7.502 0 00-8.853 5.843 168.079 168.079 0 00-3.396 33.65c0 92.085 74.982 167.001 167.147 167.001s167.147-74.916 167.147-167.001S348.165 31.6 256 31.6c-66.32 0-126.414 39.207-153.098 99.884a7.5 7.5 0 003.846 9.885c3.79 1.67 8.216-.055 9.885-3.846C140.922 82.289 195.627 46.6 256 46.6c83.894 0 152.147 68.188 152.147 152.002 0 83.813-68.253 152.001-152.147 152.001s-152.147-68.188-152.147-152.001c0-10.318 1.04-20.627 3.091-30.641a7.5 7.5 0 00-5.843-8.853z"/><path fill="#0ac77599" d="M185.295 384.269l65.404 65.344c1.464 1.463 3.382 2.194 5.301 2.194s3.837-.731 5.301-2.194l65.403-65.344c42.16-16.039 77.931-46.273 100.846-85.285a7.501 7.501 0 00-12.934-7.598c-21.45 36.518-55.073 64.715-94.674 79.399a7.486 7.486 0 00-2.693 1.727L256 433.705l-61.25-61.193a7.495 7.495 0 00-2.693-1.727c-34.814-12.909-64.608-35.812-86.162-66.229-22.028-31.089-33.671-67.727-33.671-105.955C72.224 97.363 154.666 15 256 15c25.713 0 50.582 5.199 73.917 15.453a7.499 7.499 0 009.883-3.849 7.5 7.5 0 00-3.849-9.884C310.703 5.626 283.803 0 256 0 146.395 0 57.224 89.093 57.224 198.602c0 41.353 12.598 80.989 36.433 114.627 22.985 32.439 54.647 56.976 91.638 71.04zM366.997 33.824a7.499 7.499 0 10-8.381 12.439c50.82 34.238 81.16 91.187 81.16 152.338 0 22.246-3.936 43.983-11.699 64.609a7.5 7.5 0 1014.038 5.283c8.401-22.32 12.661-45.836 12.661-69.893 0-66.147-32.815-127.746-87.779-164.776z"/><path fill="#0ac77599" d="M179.301 276.801h153.398a7.5 7.5 0 007.5-7.5v-88.009l8.375 6.552a7.469 7.469 0 004.616 1.593 7.5 7.5 0 004.627-13.407l-97.196-76.034a7.502 7.502 0 00-9.242 0l-97.196 76.034a7.5 7.5 0 00-1.286 10.528 7.498 7.498 0 0010.528 1.286l8.375-6.552v88.009a7.502 7.502 0 007.501 7.5zm7.5-107.243L256 115.425l69.199 54.133v92.243H186.801z"/><path fill="#0ac77599" d="M221 190.746a7.5 7.5 0 00-7.5 7.5v30.355c0 4.143 3.358 7.5 7.5 7.5s7.5-3.357 7.5-7.5v-30.355a7.5 7.5 0 00-7.5-7.5zm35 0a7.5 7.5 0 00-7.5 7.5v30.355c0 4.143 3.358 7.5 7.5 7.5s7.5-3.357 7.5-7.5v-30.355a7.5 7.5 0 00-7.5-7.5zm35 0a7.5 7.5 0 00-7.5 7.5v30.355c0 4.143 3.358 7.5 7.5 7.5s7.5-3.357 7.5-7.5v-30.355a7.5 7.5 0 00-7.5-7.5zm-35-45.229a7.5 7.5 0 00-7.5 7.5v11.022c0 4.143 3.358 7.5 7.5 7.5s7.5-3.357 7.5-7.5v-11.022a7.5 7.5 0 00-7.5-7.5z"/></svg>