<svg version="1.1" id="Layer_1" xmlns="http://www.w3.org/2000/svg" x="0" y="0" viewBox="0 0 368 368" height="35pt" width="35pt" xml:space="preserve"><path fill="#0ac77599" d="M184 60c4.4 0 8-3.6 8-8v-4c0-4.4-3.6-8-8-8s-8 3.6-8 8v4c0 4.4 3.6 8 8 8zm0 248c-4.4 0-8 3.6-8 8v4c0 4.4 3.6 8 8 8s8-3.6 8-8v-4c0-4.4-3.6-8-8-8zM52 176h-4c-4.4 0-8 3.6-8 8s3.6 8 8 8h4c4.4 0 8-3.6 8-8s-3.6-8-8-8zm268 0h-4c-4.4 0-8 3.6-8 8s3.6 8 8 8h4c4.4 0 8-3.6 8-8s-3.6-8-8-8zM93.6 82.4c-3.2-3.2-8-3.2-11.2 0-3.2 3.2-3.2 8 0 11.2l2.8 2.8c1.6 1.6 3.6 2.4 5.6 2.4s4-.8 5.6-2.4c3.2-3.2 3.2-8 0-11.2l-2.8-2.8zm-8.4 189.2l-2.8 2.8c-3.2 3.2-3.2 8 0 11.2C84 287.2 86 288 88 288s4-.8 5.6-2.4l2.8-2.8c3.2-3.2 3.2-8 0-11.2s-8-3.2-11.2 0zM274.4 82.4l-2.8 2.8c-3.2 3.2-3.2 8 0 11.2 1.6 1.6 3.6 2.4 5.6 2.4s4-.8 5.6-2.4l2.8-2.8c3.2-3.2 3.2-8 0-11.2-3.2-3.2-8-3.2-11.2 0zM192 180.8V108c0-4.4-3.6-8-8-8s-8 3.6-8 8v76c0 2 .8 4 2.4 5.6l87.6 87.6c1.6 1.6 3.6 2.4 5.6 2.4s4-.8 5.6-2.4c3.2-3.2 3.2-8 0-11.2L192 180.8z"/><path fill="#0ac77599" d="M184 0C82.4 0 0 82.4 0 184s82.4 184 184 184 184-82.4 184-184S285.6 0 184 0zm0 352c-92.8 0-168-75.2-168-168S91.2 16 184 16s168 75.2 168 168-75.2 168-168 168z"/></svg>