<svg id="Layer_1" height="40" viewBox="0 0 527.085 527.085" width="40" xmlns="http://www.w3.org/2000/svg"><path fill="#0ac77599" d="M527.075 263.542h.01z"/><g fill="#0ac77599"><path d="M173.108 451.722l50.436-50.436c-60.448-14.238-106.059-67.347-108.903-131.39L57.215 212.47 0 269.684C2.968 396.649 97.585 498.46 216.829 516.656l-43.721-43.721c-5.859-5.858-5.853-15.361 0-21.213zM338.892 75.363l-50.493 50.494c63.806 15.144 106.14 70.2 108.954 131.326l57.432 57.432L512 257.401c-2.968-126.965-97.585-228.776-216.829-246.972l43.721 43.721c5.859 5.858 5.853 15.361 0 21.213z"/><path d="M67.821 180.651l50.493 50.493c15.142-63.801 70.196-106.14 131.326-108.954l57.433-57.433-57.215-57.215c-126.96 2.967-228.774 97.58-246.97 216.83l43.721-43.721c5.857-5.859 15.361-5.853 21.212 0zm376.358 165.783L393.744 296c-14.238 60.448-67.347 106.058-131.39 108.902l-57.428 57.427 57.215 57.214c126.96-2.966 228.775-97.579 246.971-216.829l-43.721 43.721c-5.857 5.858-15.361 5.852-21.212-.001z"/></g></svg>