<svg height="40" viewBox="0 0 496 496.002" width="40" xmlns="http://www.w3.org/2000/svg"><path fill="#0ac77599" d="M488 0H40c-4.414 0-8 3.586-8 8v24H8c-4.414 0-8 3.586-8 8v320c0 4.426 3.586 8 8 8h156.168c7.617 9.207 17.105 16.785 27.832 22.29V488c0 3.23 1.953 6.16 4.938 7.39a7.997 7.997 0 008.718-1.734L232 467.312l26.344 26.344a8.008 8.008 0 008.722 1.735A8.006 8.006 0 00272 488v-97.71c10.723-5.505 20.207-13.075 27.832-22.29H456c4.418 0 8-3.574 8-8v-24h24c4.418 0 8-3.574 8-8V8c0-4.414-3.582-8-8-8zM256 468.688l-18.344-18.344a7.99 7.99 0 00-11.312 0L208 468.688v-72.094c7.64 2.168 15.672 3.406 24 3.406s16.36-1.238 24-3.406zM232 384c-39.695 0-72-32.297-72-72s32.305-72 72-72 72 32.297 72 72-32.305 72-72 72zm-87.59-64H95.434c-3.52-24.496-22.946-43.91-47.434-47.434V127.434C72.488 123.91 91.914 104.488 95.434 80h273.144c3.52 24.488 22.942 43.91 47.43 47.434v145.14c-24.488 3.516-43.91 22.938-47.43 47.434h-48.976c.23-2.649.398-5.305.398-8.008 0-48.52-39.48-88-88-88s-88 39.48-88 88c0 2.703.168 5.36.41 8zM448 352H310.29a87.149 87.149 0 006.304-16H376c4.418 0 8-3.574 8-8 0-22.055 17.945-40 40-40 4.418 0 8-3.574 8-8V120c0-4.414-3.582-8-8-8-22.055 0-40-17.945-40-40 0-4.414-3.582-8-8-8H88c-4.414 0-8 3.586-8 8 0 22.055-17.941 40-40 40-4.414 0-8 3.586-8 8v160c0 4.426 3.586 8 8 8 22.059 0 40 17.945 40 40 0 4.426 3.586 8 8 8h59.41a87.136 87.136 0 006.3 16H16V48h432zm32-32h-16V40c0-4.414-3.582-8-8-8H48V16h432zm0 0"/><path fill="#0ac77599" d="M232 256c-30.879 0-56 25.129-56 56h16c0-22.055 17.945-40 40-40zm40 56c0 22.055-17.941 40-40 40v16c30.879 0 56-25.129 56-56zm80-176v-32c0-4.414-3.582-8-8-8H120c-4.414 0-8 3.586-8 8v32c0 4.414 3.586 8 8 8h224c4.418 0 8-3.586 8-8zm-16-8H128v-16h208zM64 160h64v16H64zm0 32h64v16H64zm80 0h256v16H144zm0-32h256v16H144zm0 0"/></svg>