<svg id="Layer_1" height="60" viewBox="0 0 512 512" width="60" xmlns="http://www.w3.org/2000/svg"><path fill="#0ac77599" d="M153.352 372.531a68.232 68.232 0 00-22.142 3.707l37.495 37.495h54.115l-21.213-21.212a68.243 68.243 0 00-48.255-19.99z"/><path fill="#0ac77599" d="M497 375.467h-36.2c0-37.703-30.566-68.267-68.267-68.267l-155.667.016c-8.284 0-15 6.716-15 15 0 29.419 23.849 53.269 53.269 53.269l66.198-.017v.017c0 37.615-30.514 68.25-68.25 68.25H156.28l-70.34-70.34c-20.803-20.803-54.53-20.803-75.333 0-5.858 5.857-5.858 15.355 0 21.213l93.261 93.265A82.398 82.398 0 00162.125 512H497c8.284 0 15-6.716 15-15V390.467c0-8.285-6.716-15-15-15zM51.2 136.533c0 37.703 30.566 68.267 68.267 68.267l155.667-.016c8.284 0 15-6.716 15-15 0-29.419-23.849-53.269-53.269-53.269l-66.198.018v-.017c0-37.615 30.514-68.25 68.25-68.25h34.15v38.267c25.53 0 49.14 8.349 68.266 22.446V34.133C341.333 15.247 325.997 0 307.2 0H15C6.716 0 0 6.716 0 15v106.533c0 8.284 6.716 15 15 15zm407.531-68.257c29.419 0 53.269-23.85 53.269-53.269 0-8.284-6.716-15-15-15L383.762.003l68.275 68.273z"/><path fill="#0ac77599" d="M358.4 221.867c0-35.56-21.757-66.029-52.68-78.849 9.09 13.34 14.414 29.442 14.414 46.767 0 24.813-20.187 45-45 45l-86.406.009c2.444 16.044 9.347 30.621 19.418 42.422l129.852-.011c12.711-14.902 20.402-34.217 20.402-55.338zm108.863-74.727c5.858-5.858 5.858-15.355 0-21.213l-95.93-95.925v96.542l20.597 20.597c20.803 20.802 54.53 20.802 75.333-.001z"/></svg>