<svg xmlns="http://www.w3.org/2000/svg" id="Outline" viewBox="0 0 512 512" width="40" height="40"><path fill="#0ac77599" d="M112.108 182.356a8 8 0 001.62 6.282L128 206.663V312a40.068 40.068 0 0032 39.2V432a8 8 0 008 8h48v16a8 8 0 00-8 8v40a8 8 0 008 8h184a8 8 0 008-8v-40a8 8 0 00-8-8v-23.337l15.892-95.348a8 8 0 00-1.62-6.281L400 313.008V208a40.068 40.068 0 00-32-39.195V88a8 8 0 00-8-8h-48V64a8 8 0 008-8V16a8 8 0 00-8-8H128a8 8 0 00-8 8v40a8 8 0 008 8v23.009zM160 334.624A24.039 24.039 0 01144 312v-85.13l16 20.208zM176 424v-55.482A64.107 64.107 0 01231.482 424zm56-184a8 8 0 00-8 8v8h-8c-.1 0-.2.011-.294.015a25.07 25.07 0 00.327-16.7l-7.137-21.66a72.012 72.012 0 01125.185 29.775 25.066 25.066 0 00-18.106 9.633A7.956 7.956 0 00312 256h-9.376A24 24 0 00256 264a8 8 0 01-16 0v-16a8 8 0 00-8-8zm91.171-41.138a88.035 88.035 0 00-119.975 1.5l-8.4-25.5A72.116 72.116 0 00256 103.672V96h24.4a80.14 80.14 0 0071.6 71.6v85.648q-.37-.312-.75-.608a87.781 87.781 0 00-28.079-53.778zM203.747 269.5a25.385 25.385 0 004.616-3.107A8 8 0 00216 272h9.376A24 24 0 00272 264a8 8 0 0116 0v16a8 8 0 0016 0v-8h6.707a25.253 25.253 0 001.26 8.356l9.085 27.571A71.993 71.993 0 01192.5 272.311a25.018 25.018 0 0011.247-2.811zM264 352a87.912 87.912 0 0062.869-26.424l6.337 19.231A72.117 72.117 0 00272 416v8h-24.4a80.14 80.14 0 00-71.6-71.6v-85.962l.036.03A88.1 88.1 0 00264 352zm128 144H224v-24h168zm-24-310.624A24.039 24.039 0 01384 208v84.8l-16-20.207zm31.525 152.809l-15.417 92.5A8.054 8.054 0 00384 432v24H232v-16h48a8 8 0 008-8v-16a56.063 56.063 0 0156-56 8 8 0 007.6-10.5l-24.435-74.147a9.142 9.142 0 0115.85-8.537zM352 96v55.482A64.107 64.107 0 01296.518 96zM136 24h168v24H136zm7.892 64.986a8.054 8.054 0 00.108-1.315V64h152v15.671h-48a8 8 0 00-8 8v16a56.063 56.063 0 01-56 56 8 8 0 00-7.6 10.5l24.435 74.148a9.142 9.142 0 01-15.85 8.537l-56.512-71.373z"/></svg>