<svg xmlns="http://www.w3.org/2000/svg" viewBox="0 0 512 512" width="40" height="40"><g id="outline" fill="#0ac77599"><path d="M256 16A240.05 240.05 0 0049.827 378.916a7.991 7.991 0 00-.483 9.522l9.06 13.59-38.52 23.112a8 8 0 002.547 14.705l33.207 6.641-2.223 41.081a8 8 0 0012.107 7.291l61.1-36.7a240.12 240.12 0 00258.763 0l61.1 36.7a8 8 0 0012.107-7.291l-2.223-41.081 33.207-6.641a8 8 0 002.547-14.705L453.6 402.028l9.06-13.59a7.992 7.992 0 00-.485-9.525A240.026 240.026 0 00256 16zM90.369 376.377a382.764 382.764 0 01331.262 0l22.6 10.85-23.083 34.625a398.732 398.732 0 00-330.3 0l-23.082-34.625zM256 322.685a401.343 401.343 0 00-132.68 22.763A158.725 158.725 0 0196 256c0-88.225 71.775-160 160-160s160 71.775 160 160a158.815 158.815 0 01-27.325 89.446A401.338 401.338 0 00256 322.685zm55.37 83.439a160.163 160.163 0 01-110.743 0 377.593 377.593 0 01110.743 0zM70.206 473.381l1.782-32.948a8 8 0 00-6.419-8.278l-19.709-3.941 21.43-12.858 14.054 21.082a8 8 0 0010.095 2.785q8.032-3.825 16.253-7.263l9 13.5zm65.076-28.67a8.057 8.057 0 00-.626-1.149l-11.736-17.6A386.228 386.228 0 01173 411.217a176.124 176.124 0 00166 0 385.992 385.992 0 0150.081 14.74l-11.736 17.6a7.942 7.942 0 00-.625 1.148 224.122 224.122 0 01-241.437 0zm330.858-16.5l-19.709 3.941a8 8 0 00-6.419 8.278l1.782 32.948-46.485-27.918 9-13.5q8.213 3.446 16.253 7.263a8 8 0 0010.1-2.785l14.054-21.082zm-18.067-56.892l-19.518-9.369q-12.058-5.787-24.512-10.745A174.7 174.7 0 00432 256c0-97.047-78.953-176-176-176S80 158.953 80 256a174.6 174.6 0 0027.949 95.211q-12.436 4.959-24.5 10.742l-19.513 9.366a224 224 0 11384.141 0z"/><path d="M332 192h-44a8.009 8.009 0 01-8-8v-24a24.028 24.028 0 00-24-24h-16a8 8 0 00-8 8v17.633a45.692 45.692 0 01-13.474 32.526l-5.84 5.841H168a8 8 0 00-8 8v88a8 8 0 008 8h140a20 20 0 0018.7-27.106 19.991 19.991 0 008-24 19.991 19.991 0 008-24A20 20 0 00332 192zm-156 24h32v72h-32zm156 0h-8a8 8 0 000 16 4 4 0 010 8h-8a8 8 0 000 16 4 4 0 010 8h-8a8 8 0 000 16 4 4 0 010 8h-84v-76.687l5.841-5.839A61.6 61.6 0 00248 161.633V152h8a8.009 8.009 0 018 8v24a24.028 24.028 0 0024 24h44a4 4 0 010 8zm-92.59 144.2l7.4 5.377-2.827 8.7a3 3 0 004.617 3.355l7.4-5.377 7.4 5.377a3 3 0 004.617-3.355l-2.827-8.7 7.4-5.377a3 3 0 00-1.763-5.427h-9.147l-2.827-8.7a3 3 0 00-5.706 0l-2.827 8.7h-9.147a3 3 0 00-1.763 5.427zm-46.168 5.783l7.4 5.377-2.827 8.7a3 3 0 004.617 3.355l7.4-5.377 7.4 5.377a3 3 0 004.617-3.355l-2.827-8.7 7.4-5.377a3 3 0 00-1.763-5.427h-9.148l-2.826-8.7a3 3 0 00-5.707 0l-2.826 8.7h-9.147a3 3 0 00-1.763 5.427zm92.335 0l7.4 5.377-2.827 8.7a3 3 0 004.617 3.355l7.4-5.377 7.4 5.377a3 3 0 004.617-3.355l-2.827-8.7 7.4-5.377a3 3 0 00-1.764-5.427h-9.147l-2.826-8.7a3 3 0 00-5.707 0l-2.826 8.7h-9.147a3 3 0 00-1.763 5.427z"/></g></svg>