<svg id="Layer_1" height="40" viewBox="0 0 512 512" width="40" xmlns="http://www.w3.org/2000/svg"><g fill="#0ac77599"><path d="M504.5 49.692H270.764V7.5a7.5 7.5 0 00-7.5-7.5h-46.793a7.5 7.5 0 00-7.5 7.5v42.192h-91.782a7.5 7.5 0 00-7.5 7.5v64.482c-4.95 2.638-9.641 6.106-13.591 10.098v-22.043c0-13.597-13.527-24.762-33.647-28.469V64.979a7.5 7.5 0 00-7.5-7.5c-13.278 0-26.778 5.105-37.039 14.006C6.362 81.505 0 95.413 0 110.646v31.423c0 9.697 15 9.697 15 0v-31.423c0-16.417 12.217-33.998 32.451-37.529v287.704c-11.77 1.471-23.79 6.179-32.421 14.474-.016-10.213-.03-193.372-.03-193.372 0-9.697-15-9.697-15 0v232.965c0 .421.043.831.11 1.233.737 21.999 21.09 38.439 47.939 38.439 12.999 0 24.629-3.7 33.196-9.797l.004 27.573C81.253 497.68 106.6 512 129.305 512c24.1-.004 48.042-13.577 48.042-39.68l-.017-106.038h213.59L235.288 498.79c-5.203 4.429-1.971 13.21 4.862 13.21h225.868a7.5 7.5 0 007.5-7.5v-36.382c0-9.697-15-9.697-15 0V497H260.529l197.989-168.569v98.311c0 9.697 15 9.697 15 0v-60.458H504.5a7.5 7.5 0 007.5-7.5V57.192a7.5 7.5 0 00-7.5-7.5zm-7.5 15V246.6H321.348V64.692zM255.764 15v191.945h-31.793v-19.167h5.446c9.697 0 9.697-15 0-15h-5.446v-19.653h12.446c9.697 0 9.697-15 0-15h-12.446v-19.653h5.446a7.5 7.5 0 000-15h-5.446V83.819h12.446c9.697 0 9.697-15 0-15h-12.446V49.167h5.446c9.697 0 9.697-15 0-15h-5.446V15zM118.46 133.78a39.518 39.518 0 0110.187-3.223l.046 287.704c-8.355 1.046-21.861 4.328-32.419 14.479-.017-10.073-.033-17.87-.033-18.082l-.04-246.567c-.002-13.439 8.188-27.655 22.259-34.311zm43.884 316.655a46.43 46.43 0 00-.767-.43c-8.602-4.722-19.833-7.356-31.686-7.44l-.001-9.324c3.594-.495 6.008-.458 6.066-.458 4.696-.314 7.275-2.813 7.737-7.497l-.043-271.201c9.942 2.46 18.648 7.5 18.649 13.079zM81.098 109.729v283.17c-8.357-4.799-19.65-7.687-32.451-7.773V375.8c3.596-.495 6.01-.457 6.066-.456 4.696-.314 7.275-2.813 7.738-7.496V96.599c11.424 2.735 18.647 8.407 18.647 13.13zm0 308.711c0 11.448-15.135 21.12-33.049 21.12-18.798 0-32.974-10.606-32.974-24.672 0-14.244 5.163-27.735 18.572-34.548v12.61c.534 4.906 3.269 7.395 8.204 7.467 10.422-.981 21.943.185 31.261 5.301 5.377 2.953 8.424 6.703 7.986 12.722zM129.303 497h-.008c-18.793 0-32.969-10.604-32.971-24.666-.002-14.243 5.158-27.737 18.567-34.552l.002 12.611c.535 4.905 3.27 7.394 8.204 7.465 12.723-1.196 39.861.846 39.251 18.016.002 11.449-15.131 21.124-33.045 21.126zm47.996-329.84c-.002-13.502-13.574-24.733-33.652-28.456l-.003-16.288c-.43-4.571-2.93-7.071-7.501-7.499-3.828.001-7.672.439-11.454 1.257V64.692h84.282v149.752a7.5 7.5 0 007.5 7.5h46.793a7.5 7.5 0 007.5-7.5V64.692h35.584v286.591H177.329zm291.864 138.226a7.498 7.498 0 00-8.008 1.098l-52.617 44.799h-87.19V261.6H497v89.683h-23.482v-39.088c0-2.924-1.7-5.582-4.355-6.809z"/><path d="M357.34 214.917h69.105a7.57 7.57 0 005.311-2.205l34.552-34.525a7.502 7.502 0 002.199-5.306l-.01-69.007c0-4.058-3.443-7.499-7.501-7.499l-69.114.008c-1.987 0-3.895.79-5.3 2.195l-34.538 34.511a7.59 7.59 0 00-2.205 5.311v69.017a7.501 7.501 0 007.501 7.5zm7.5-69.017h54.105v54.017H364.84zm69.106 43.421v-47.812l19.556-19.54.007 47.806zm-38.956-77.938l47.89-.006-19.539 19.523h-47.885zm-2.177 202.704h-24.851c-9.697 0-9.697 15 0 15h24.851c9.697 0 9.697-15 0-15zm38.826-29.845h-63.677c-9.697 0-9.697 15 0 15h63.677c9.697 0 9.697-15 0-15zm-6.912 101.066l-90.555 77.1c-5.201 4.429-1.97 13.21 4.862 13.21h90.555a7.5 7.5 0 007.5-7.5v-77.1c0-5.702-7.202-10.105-12.362-5.71zm-2.638 75.31h-62.677l62.677-53.364z"/></g></svg>